<svg width="64" height="62" viewBox="0 0 64 62" fill="none" xmlns="http://www.w3.org/2000/svg">
<path opacity="0.5" d="M63.6418 1.00875L47.8033 57.1897C47.9893 57.3661 31.5397 57.1897 47.8033 57.1897L37.3064 47.2306L45.1724 19.3958C45.2522 19.1437 45.013 18.9168 44.7472 18.9924L15.4089 26.4554L4.96507 16.5468C4.77905 16.3703 4.85878 16.0677 5.12452 15.9921L63.6418 1.09137C63.9075 1.04095 63.7215 0.781836 63.6418 1.00875Z" fill="#00B37E"/>
<path opacity="0.5" d="M37.3058 47.2296L33.2665 61.6008C33.1868 61.853 32.8679 61.9286 32.6818 61.7521L0.101381 30.8665C-0.0846408 30.69 -0.00491742 30.3875 0.260829 30.3118L15.4084 26.4543L37.3058 47.2296Z" fill="#00B37E"/>
<path d="M45.1711 19.3947L37.305 47.2296L15.4076 26.4543L44.7459 18.9913C45.0117 18.9157 45.2508 19.1426 45.1711 19.3947Z" fill="#00B37E"/>
</svg>
